<svg id="icon-people" xmlns="http://www.w3.org/2000/svg" viewBox="0 0 18.061 18">
  <path id="e251" d="M9.06,10.268a15.716,15.716,0,0,1,3.685.483,11.614,11.614,0,0,1,3.654,1.57A3.034,3.034,0,0,1,18.06,14.8V18H0V14.8a3.031,3.031,0,0,1,1.691-2.477,11.983,11.983,0,0,1,3.685-1.57A15.716,15.716,0,0,1,9.06,10.268Zm0-2.537A3.715,3.715,0,0,1,6.342,6.584,3.715,3.715,0,0,1,5.195,3.866,3.715,3.715,0,0,1,6.342,1.148,3.715,3.715,0,0,1,9.06,0a3.617,3.617,0,0,1,2.688,1.148,3.765,3.765,0,0,1,1.117,2.718,3.765,3.765,0,0,1-1.117,2.718A3.617,3.617,0,0,1,9.06,7.732Z" />
</svg>
