<svg id="icon-share" xmlns="http://www.w3.org/2000/svg" viewBox="0 0 21.685 24">
  <path id="e25a" d="M18.071,16.941a3.334,3.334,0,0,1,2.485,1.045,3.511,3.511,0,0,1-.028,4.969,3.41,3.41,0,0,1-4.913,0,3.426,3.426,0,0,1-1.045-2.513,3.741,3.741,0,0,1,.056-.791L6.1,14.682a3.613,3.613,0,0,1-2.485.96,3.473,3.473,0,0,1-2.541-1.073,3.546,3.546,0,0,1,0-5.082A3.473,3.473,0,0,1,3.614,8.414a3.613,3.613,0,0,1,2.485.96l8.471-4.913a4.757,4.757,0,0,1-.113-.847,3.473,3.473,0,0,1,1.073-2.541,3.546,3.546,0,0,1,5.082,0,3.473,3.473,0,0,1,1.073,2.541,3.473,3.473,0,0,1-1.073,2.541,3.473,3.473,0,0,1-2.541,1.073,3.636,3.636,0,0,1-2.485-1.016L7.115,11.181a4.757,4.757,0,0,1,.113.847,4.757,4.757,0,0,1-.113.847L15.7,17.845A3.458,3.458,0,0,1,18.071,16.941Z" fill="#262729"/>
</svg>
