<svg id="icon-duration" xmlns="http://www.w3.org/2000/svg" viewBox="0 0 18 18">
  <path id="e1b3" d="M9,16.225a6.95,6.95,0,0,0,5.092-2.134A6.95,6.95,0,0,0,16.225,9a6.95,6.95,0,0,0-2.134-5.092A6.95,6.95,0,0,0,9,1.775,6.95,6.95,0,0,0,3.908,3.908,6.95,6.95,0,0,0,1.775,9a6.95,6.95,0,0,0,2.134,5.092A6.95,6.95,0,0,0,9,16.225ZM9,0a8.668,8.668,0,0,1,6.359,2.641A8.668,8.668,0,0,1,18,9a8.668,8.668,0,0,1-2.641,6.359A8.668,8.668,0,0,1,9,18a8.668,8.668,0,0,1-6.359-2.641A8.668,8.668,0,0,1,0,9,8.668,8.668,0,0,1,2.641,2.641,8.668,8.668,0,0,1,9,0Zm3.8,5.2A5.2,5.2,0,0,1,14.408,9a5.268,5.268,0,0,1-1.563,3.8,5.108,5.108,0,0,1-3.8,1.606A5.246,5.246,0,0,1,5.2,12.8L9,9V3.592A5.2,5.2,0,0,1,12.8,5.2Z" />
</svg>
