<svg id="icon-location" xmlns="http://www.w3.org/2000/svg" viewBox="0 0 15.39 22">
  <path id="e052" d="M7.695,10.432a2.733,2.733,0,0,0,2.737-2.737A2.733,2.733,0,0,0,7.695,4.958,2.733,2.733,0,0,0,4.958,7.695a2.733,2.733,0,0,0,2.737,2.737ZM7.695,0a7.419,7.419,0,0,1,5.448,2.246A7.419,7.419,0,0,1,15.39,7.695a10.328,10.328,0,0,1-.8,3.667,22.6,22.6,0,0,1-1.937,3.873q-1.136,1.808-2.246,3.383t-1.885,2.5L7.695,22q-.31-.362-.826-.955T5.009,18.669a39.8,39.8,0,0,1-2.35-3.46,25.129,25.129,0,0,1-1.833-3.8A10.448,10.448,0,0,1,0,7.695,7.419,7.419,0,0,1,2.246,2.246,7.419,7.419,0,0,1,7.695,0Z" />
</svg>
