<svg id="icon-loading" xmlns="http://www.w3.org/2000/svg" viewBox="0 0 17.947 18">
  <path d="M15.316,2.632,17.947,0V7.895H10.053l3.632-3.632a6.474,6.474,0,0,0-4.737-2A6.491,6.491,0,0,0,4.184,4.237,6.491,6.491,0,0,0,2.211,9a6.491,6.491,0,0,0,1.974,4.763,6.491,6.491,0,0,0,4.763,1.974A6.637,6.637,0,0,0,12.895,14.5a6.446,6.446,0,0,0,2.421-3.237h2.316a8.663,8.663,0,0,1-3.158,4.842A8.724,8.724,0,0,1,8.947,18a8.614,8.614,0,0,1-6.316-2.632A8.675,8.675,0,0,1,0,9,8.675,8.675,0,0,1,2.632,2.632,8.614,8.614,0,0,1,8.947,0,8.675,8.675,0,0,1,15.316,2.632Z"/>
</svg>
