<svg id="icon-search" data-name="Group 13077" xmlns="http://www.w3.org/2000/svg" viewBox="0 0 19.2 19.177">
  <g id="Group_12771" data-name="Group 12771">
    <path id="e9ae" d="M18.908,17.536,14.591,13.22A7.987,7.987,0,0,0,15.85,10.9a8.185,8.185,0,0,0,.472-2.765,7.793,7.793,0,0,0-.652-3.17,7.987,7.987,0,0,0-1.742-2.585A8.532,8.532,0,0,0,11.331.63,8.032,8.032,0,0,0,8.161,0a8.032,8.032,0,0,0-3.17.63,8.532,8.532,0,0,0-2.6,1.754A7.986,7.986,0,0,0,.652,4.969,7.793,7.793,0,0,0,0,8.139a7.847,7.847,0,0,0,.652,3.193,7.986,7.986,0,0,0,1.742,2.585,8.532,8.532,0,0,0,2.6,1.754,8.032,8.032,0,0,0,3.17.63,7.806,7.806,0,0,0,2.72-.472,9.643,9.643,0,0,0,2.361-1.259l4.317,4.317a.927.927,0,0,0,.348.225.822.822,0,0,0,.652,0,.941.941,0,0,0,.348-1.574ZM1.933,8.139a6.314,6.314,0,0,1,.472-2.428A6.539,6.539,0,0,1,3.743,3.732a5.939,5.939,0,0,1,1.99-1.326,5.961,5.961,0,0,1,2.428-.495,5.961,5.961,0,0,1,2.428.495,5.939,5.939,0,0,1,1.99,1.326,6.539,6.539,0,0,1,1.338,1.978,6.314,6.314,0,0,1,.472,2.428,6.132,6.132,0,0,1-1.821,4.429h0a6.278,6.278,0,0,1-1.978,1.338,6.081,6.081,0,0,1-2.428.483,5.961,5.961,0,0,1-2.428-.495,6.234,6.234,0,0,1-3.327-3.327A6.206,6.206,0,0,1,1.933,8.139Z" transform="translate(0 0)" />
  </g>
</svg>
