<svg xmlns="http://www.w3.org/2000/svg" xmlns:xlink="http://www.w3.org/1999/xlink" viewBox="0 0 290.41 101.52"><defs><style>.cls-1{isolation:isolate;}.cls-2{fill:url(#linear-gradient);}.cls-3{fill:url(#linear-gradient-2);}.cls-4{fill:url(#linear-gradient-3);}.cls-5{fill:url(#linear-gradient-4);}.cls-6{fill:url(#linear-gradient-5);}.cls-7{fill:url(#linear-gradient-6);}.cls-8{fill:url(#linear-gradient-7);}.cls-9{fill:url(#linear-gradient-8);}.cls-10{fill:url(#linear-gradient-9);}.cls-11{fill:url(#linear-gradient-10);}.cls-12{fill:url(#linear-gradient-11);}.cls-13{fill:url(#linear-gradient-12);}.cls-14{fill:url(#linear-gradient-13);}.cls-15{fill:url(#linear-gradient-14);}.cls-16{fill:url(#linear-gradient-15);}.cls-17{fill:url(#linear-gradient-16);}.cls-18{fill:url(#radial-gradient);}.cls-19{opacity:0.54;fill:url(#radial-gradient-2);}.cls-19,.cls-23{mix-blend-mode:multiply;}.cls-20{fill:url(#radial-gradient-3);}.cls-21{fill:url(#radial-gradient-4);}.cls-22{fill:url(#radial-gradient-5);}.cls-23{opacity:0.42;fill:url(#radial-gradient-6);}.cls-24{fill:url(#radial-gradient-7);}.cls-25{fill:url(#radial-gradient-8);}.cls-26{fill:url(#radial-gradient-9);}.cls-27{fill:url(#radial-gradient-10);}</style><linearGradient id="linear-gradient" x1="61.87" y1="94.67" x2="61.87" y2="-1.33" gradientUnits="userSpaceOnUse"><stop offset="0.13" stop-color="#0a0f17"/><stop offset="1" stop-color="#595a64"/></linearGradient><linearGradient id="linear-gradient-2" x1="21.94" y1="94.67" x2="21.94" y2="-1.33" xlink:href="#linear-gradient"/><linearGradient id="linear-gradient-3" x1="143.41" y1="94.67" x2="143.41" y2="-1.33" xlink:href="#linear-gradient"/><linearGradient id="linear-gradient-4" x1="89.72" y1="94.67" x2="89.72" y2="-1.33" xlink:href="#linear-gradient"/><linearGradient id="linear-gradient-5" x1="107.25" y1="94.67" x2="107.25" y2="-1.33" xlink:href="#linear-gradient"/><linearGradient id="linear-gradient-6" x1="166.27" y1="94.67" x2="166.27" y2="-1.33" xlink:href="#linear-gradient"/><linearGradient id="linear-gradient-7" x1="166.27" y1="94.67" x2="166.27" y2="-1.33" xlink:href="#linear-gradient"/><linearGradient id="linear-gradient-8" x1="82.01" y1="94.67" x2="82.01" y2="-1.33" xlink:href="#linear-gradient"/><linearGradient id="linear-gradient-9" x1="93.67" y1="94.67" x2="93.67" y2="-1.33" xlink:href="#linear-gradient"/><linearGradient id="linear-gradient-10" x1="105.18" y1="94.67" x2="105.18" y2="-1.33" xlink:href="#linear-gradient"/><linearGradient id="linear-gradient-11" x1="116.69" y1="94.67" x2="116.69" y2="-1.33" xlink:href="#linear-gradient"/><linearGradient id="linear-gradient-12" x1="128.45" y1="94.67" x2="128.45" y2="-1.33" xlink:href="#linear-gradient"/><linearGradient id="linear-gradient-13" x1="142.51" y1="94.67" x2="142.51" y2="-1.33" xlink:href="#linear-gradient"/><linearGradient id="linear-gradient-14" x1="156.13" y1="94.67" x2="156.13" y2="-1.33" xlink:href="#linear-gradient"/><linearGradient id="linear-gradient-15" x1="69.02" y1="94.67" x2="69.02" y2="-1.32" xlink:href="#linear-gradient"/><linearGradient id="linear-gradient-16" x1="168.43" y1="94.67" x2="168.43" y2="-1.32" xlink:href="#linear-gradient"/><radialGradient id="radial-gradient" cx="237.86" cy="48.65" r="51.81" gradientUnits="userSpaceOnUse"><stop offset="0.2" stop-color="#e6d6fb"/><stop offset="0.42" stop-color="#c489fb"/><stop offset="0.71" stop-color="#961efa"/><stop offset="1" stop-color="#4f00a3"/></radialGradient><radialGradient id="radial-gradient-2" cx="238.92" cy="52.51" r="54.2" gradientUnits="userSpaceOnUse"><stop offset="0.8" stop-color="#8e42d4" stop-opacity="0"/><stop offset="0.85" stop-color="#7c36bb" stop-opacity="0.17"/><stop offset="0.94" stop-color="#4b1878" stop-opacity="0.61"/><stop offset="1" stop-color="#260045" stop-opacity="0.95"/></radialGradient><radialGradient id="radial-gradient-3" cx="298.66" cy="26.67" r="71.25" gradientUnits="userSpaceOnUse"><stop offset="0.01" stop-color="#fff"/><stop offset="0.22" stop-color="#ead3fe"/><stop offset="0.27" stop-color="#e1bffe" stop-opacity="0.93"/><stop offset="0.59" stop-color="#ab4cfb" stop-opacity="0.55"/><stop offset="0.72" stop-color="#961efa" stop-opacity="0.39"/><stop offset="1" stop-color="#4f00a3" stop-opacity="0.34"/></radialGradient><radialGradient id="radial-gradient-4" cx="236.53" cy="54.81" r="24.85" gradientUnits="userSpaceOnUse"><stop offset="0.01" stop-color="#fff"/><stop offset="0.17" stop-color="#d0e1fa"/><stop offset="0.22" stop-color="#c1d7f9"/><stop offset="0.25" stop-color="#b7d0f8"/><stop offset="0.58" stop-color="#387eed"/><stop offset="0.72" stop-color="#055de8"/><stop offset="1" stop-color="#002a87"/></radialGradient><radialGradient id="radial-gradient-5" cx="242.99" cy="68.86" r="44.81" gradientUnits="userSpaceOnUse"><stop offset="0.01" stop-color="#fff"/><stop offset="0.22" stop-color="#ffe5f6"/><stop offset="0.28" stop-color="#fecbeb"/><stop offset="0.39" stop-color="#fda5da"/><stop offset="0.48" stop-color="#fd8ace"/><stop offset="0.57" stop-color="#fc79c7"/><stop offset="0.63" stop-color="#fc73c4"/><stop offset="0.69" stop-color="#f86cc1"/><stop offset="0.77" stop-color="#ed59b9"/><stop offset="0.86" stop-color="#dc39ac"/><stop offset="0.97" stop-color="#c40e9a"/><stop offset="1" stop-color="#bc0094"/></radialGradient><radialGradient id="radial-gradient-6" cx="235.97" cy="61.49" r="44.17" gradientUnits="userSpaceOnUse"><stop offset="0.87" stop-color="#fc12eb" stop-opacity="0.27"/><stop offset="0.9" stop-color="#ec11df" stop-opacity="0.34"/><stop offset="0.94" stop-color="#bd0ebe" stop-opacity="0.53"/><stop offset="0.99" stop-color="#6f0986" stop-opacity="0.85"/><stop offset="1" stop-color="#570875" stop-opacity="0.95"/></radialGradient><radialGradient id="radial-gradient-7" cx="160.31" cy="50.74" r="24.74" gradientTransform="matrix(1.01, 0, 0, 1, 80.36, 6.48)" xlink:href="#radial-gradient-4"/><radialGradient id="radial-gradient-8" cx="258.89" cy="76.51" r="60.46" gradientUnits="userSpaceOnUse"><stop offset="0.16" stop-color="#00d6f2"/><stop offset="0.26" stop-color="#00c1ec"/><stop offset="0.46" stop-color="#008cde"/><stop offset="0.74" stop-color="#0036c7"/><stop offset="0.91" stop-color="#0000b8"/></radialGradient><radialGradient id="radial-gradient-9" cx="211.9" cy="41.5" r="57.15" gradientUnits="userSpaceOnUse"><stop offset="0.22" stop-color="#0200bf"/><stop offset="0.56" stop-color="#0179dc"/><stop offset="0.82" stop-color="#00d6f2"/></radialGradient><radialGradient id="radial-gradient-10" cx="203.75" cy="12.84" r="66.99" gradientTransform="matrix(0.55, 0.83, -0.79, 0.53, 101.17, -163.63)" gradientUnits="userSpaceOnUse"><stop offset="0.22" stop-color="#ffabf6"/><stop offset="0.42" stop-color="#fe86e1"/><stop offset="0.72" stop-color="#fc54c4"/><stop offset="1" stop-color="#bc0094"/></radialGradient></defs><title>Fichier 3</title><g class="cls-1"><g id="Calque_2" data-name="Calque 2"><g id="Layer_1" data-name="Layer 1"><path class="cls-2" d="M71.1,63.19H61.6a.59.59,0,0,1-.5-.28c-.24-.37.06-.91.24-1.24l15-31.61a1.23,1.23,0,0,0,.09-.5A1.54,1.54,0,0,0,75,28H45.82a.52.52,0,0,0-.51.48c0,6.23,4.38,8.21,7.4,8.22h9.54a.58.58,0,0,1,.49.28c.24.36-.11,1-.29,1.27a.42.42,0,0,0-.06.18l-14.72,31a2.08,2.08,0,0,0-.28.9A1.52,1.52,0,0,0,49,71.89H77.87a.57.57,0,0,0,.56-.52C78.37,65.21,74.13,63.16,71.1,63.19Z"/><path class="cls-3" d="M34.7,31.93c-2.1.4-6.44,1.56-9.38,4.68a.26.26,0,0,0-.08.19.25.25,0,0,0,.21.25h0a13.2,13.2,0,0,1,9.74,12.71V66c-.4-3.08-4-2.88-4-2.88H22a13.17,13.17,0,0,1-12.31-8.2,12.47,12.47,0,0,1-.8-7.29c.08-.46.18-.91.3-1.36A20.9,20.9,0,0,1,17.26,35c5.45-3.94,11.85-5.07,16.8-3.49A22,22,0,0,0,0,49.77a22,22,0,0,0,22,22H43.31a.57.57,0,0,0,.58-.57V49.77A21.85,21.85,0,0,0,34.7,31.93Z"/><path class="cls-4" d="M156.88,36.57a.58.58,0,0,0,.57-.56V28.43a.57.57,0,0,0-.54-.55h-5.56a21.94,21.94,0,0,0-13.76,4.82c-1.44-3.84-5.25-4.73-7.71-4.88a.57.57,0,0,0-.51.51V49.49c0,.09,0,.19,0,.28V71.22a.58.58,0,0,0,.55.53c2.78-.13,7.49-1.19,8.25-6.81V49.77a13.13,13.13,0,0,1,13.19-13.19h5.53Z"/><path class="cls-5" d="M99.05,62.86a.24.24,0,0,0-.17-.24h0c-5.6-1.51-9.33-6.63-9.33-12.84V35.43c-.39-6-5.48-7.33-8.4-7.55h-.24a.57.57,0,0,0-.52.55V49.77A22,22,0,0,0,89.61,67.7c2.08-.4,6.4-1.55,9.34-4.64A.26.26,0,0,0,99.05,62.86Z"/><path class="cls-6" d="M123.74,27.88h-.23c-2.89.22-7.92,1.51-8.39,7.36v14c0,5.91-3.32,12.37-10,16.3a20.28,20.28,0,0,1-14.91,2.62,21.88,21.88,0,0,0,25.63-1.08c1.54,3.69,5.39,4.56,7.89,4.71a.59.59,0,0,0,.53-.52V28.44A.58.58,0,0,0,123.74,27.88Z"/><path class="cls-7" d="M170,71.76a.58.58,0,0,0,.58-.58h0V35.08c-.6-5.74-5.26-6.92-8.09-7.1a.56.56,0,0,0-.5.52V71.23a.56.56,0,0,0,.56.53H170Z"/><path class="cls-8" d="M162.54,23.74H170a.57.57,0,0,0,.57-.57V20.54c-.59-5.71-5.22-6.91-8-7.1A.57.57,0,0,0,162,14v9.23A.56.56,0,0,0,162.54,23.74Z"/><path class="cls-9" d="M82.82,82.43h-4v7.35h4c1.69,0,2.38-.65,2.38-2.25V84.76C85.2,83.06,84.55,82.43,82.82,82.43Zm.73,5c0,.61-.66.93-1.31.93H80.47V83.77h1.72c.68,0,1.36.29,1.36.92Z"/><rect class="cls-10" x="92.85" y="82.43" width="1.65" height="7.35"/><path class="cls-11" d="M104.34,82.39c-1.52,0-2.19.69-2.19,2.25v3c0,1.57.68,2.24,2.27,2.24h3.8V86.26h-1.48v2.17h-1.91c-.67,0-1-.32-1-.91V84.84a.88.88,0,0,1,.95-1h3.48V82.4h-3.88Z"/><rect class="cls-12" x="115.87" y="82.43" width="1.65" height="7.35"/><polygon class="cls-13" points="125.17 83.89 127.63 83.89 127.63 89.78 129.28 89.78 129.28 83.89 131.74 83.89 131.74 82.43 125.17 82.43 125.17 83.89"/><path class="cls-14" d="M142.51,82.3c-2.1,0-3.12.8-3.12,2.46v5h1.52V88.15H144v1.63h1.65V84.7C145.63,82.71,143.93,82.3,142.51,82.3ZM144,86.72h-3.07v-2.1c0-.76.76-1.1,1.52-1.1s1.55.29,1.55,1.08Z"/><polygon class="cls-15" points="154.93 88.28 154.93 82.43 153.27 82.43 153.27 89.78 158.99 89.78 158.99 88.28 154.93 88.28"/><polygon class="cls-16" points="71.16 87.87 68.51 86.1 71.16 84.28 71.16 82.4 66.87 85.38 66.87 86.84 71.16 89.75 71.16 87.87"/><polygon class="cls-17" points="166.28 87.87 168.94 86.1 166.28 84.28 166.28 82.4 170.57 85.38 170.57 86.84 166.28 89.75 166.28 87.87"/><path class="cls-18" d="M252.23,100.29a.84.84,0,0,0-.16.64c.42,1.53,6.07-.36,7.11-.82A52.27,52.27,0,1,0,208.89,8.94c-7,4.71-11.65,13-10.21,21,2.12,11.72,11.68,14.16,20.6,11.71a16.75,16.75,0,0,0,12-19.33,40.91,40.91,0,0,1,25.4,74.74q-1.19.81-2.34,1.65A8.07,8.07,0,0,0,252.23,100.29Z"/><path class="cls-19" d="M252.23,100.29a.84.84,0,0,0-.16.64c.42,1.53,6.07-.36,7.11-.82A52.27,52.27,0,1,0,208.89,8.94c-7,4.71-11.65,13-10.21,21,2.12,11.72,11.68,14.16,20.6,11.71a16.75,16.75,0,0,0,12-19.33,40.91,40.91,0,0,1,25.4,74.74q-1.19.81-2.34,1.65A8.07,8.07,0,0,0,252.23,100.29Z"/><path class="cls-20" d="M273.38,87.53A44.25,44.25,0,0,0,253.85,20l-.37-.14c-2.25-.88-5-2-6.79-3.42a7.22,7.22,0,0,1-2.41-7.88v0l0-.06c0-.16.95-4,6.13-4a17.57,17.57,0,0,1,6,1.27A48.47,48.47,0,0,1,283.8,31.54a50.06,50.06,0,0,1-10.42,56Z"/><path class="cls-21" d="M234.28,83.52c9,1.3,19.14-2.7,21.48-11,2.47-8.71-7.06-18.2-9.55-9.55a14.86,14.86,0,0,1-3.82,6.94,12.32,12.32,0,0,1-11.54,3.3c-8.53-2-13.17-9.67-13.53-18.61,0-.83-2,.75-1.76,0-.05,0-3.06-1.08-3.12-1.08-.74,1.7,4.44,4.43,4.16,6.36A20.87,20.87,0,0,0,234.28,83.52Z"/><path class="cls-22" d="M237.33,21.62c-1.34-.13-2.7-.2-4.07-.2a42.19,42.19,0,0,0-42.19,42.19A43.74,43.74,0,0,0,193.16,77a39.12,39.12,0,0,0,13.63,19c5.37,3.82,12.66,6.51,19.41,3.67a15.53,15.53,0,0,0,5.64-4.16c1.86-2.16,2-4.42,1.3-7.13-1.55-5.94-2.21-10.62-7.73-12.44-2.84-2.8-7.29-7.8-8.43-11.93-3.43-12.49,4.42-24.68,16.91-28.11,6.94-1.91,14.73-3.39,20.23.39,2.5-1.7,5,.77,7.82,2.84A57.37,57.37,0,0,1,272,48.75,41.89,41.89,0,0,0,237.33,21.62Z"/><path class="cls-23" d="M237.33,21.62c-1.34-.13-2.7-.2-4.07-.2a42.19,42.19,0,0,0-42.19,42.19A43.74,43.74,0,0,0,193.16,77a39.12,39.12,0,0,0,13.63,19c5.37,3.82,12.66,6.51,19.41,3.67a15.53,15.53,0,0,0,5.64-4.16c1.86-2.16,2-4.42,1.3-7.13-1.55-5.94-2.21-10.62-7.73-12.44-2.84-2.8-7.29-7.8-8.43-11.93-3.43-12.49,4.42-24.68,16.91-28.11,6.94-1.91,14.73-3.39,20.23.39,2.5-1.7,5,.77,7.82,2.84A57.37,57.37,0,0,1,272,48.75,41.89,41.89,0,0,0,237.33,21.62Z"/><path class="cls-24" d="M268.1,49.46l.64-.81a27.12,27.12,0,0,0-31.06-18.71A26.82,26.82,0,0,0,216,52.21c-1.16,7.73,16.37,19.1,15.76,7.58a18.82,18.82,0,0,1,1.72-10,18.82,18.82,0,0,1,13.12-9.54c8.21-1.55,15.95,2.7,21.15,9.63Z"/><path class="cls-25" d="M260.79,84.3a9.68,9.68,0,0,0,1.48-5.08,8.13,8.13,0,0,0-8.14-8.14c-4.38,0-7.6,3.57-11.65,4.68A20.62,20.62,0,0,1,225,39.13a29.72,29.72,0,0,0,22.67,54.44C252.61,92.2,258.07,88.78,260.79,84.3Z"/><path class="cls-26" d="M241.48,86.9c8.53-2.11,13.3-7.51,14.56-15.71a8.05,8.05,0,0,0-1.91-.23c-4.38,0-7.6,3.56-11.65,4.66A20.55,20.55,0,0,1,225,39.13,29.65,29.65,0,0,0,210.05,65C211.9,82.87,229.31,89.91,241.48,86.9Z"/><path class="cls-27" d="M273.93,52.28a41,41,0,0,0-78.58-1.83c-1.79,5.51-3.75,14.2.33,18.16,2.88,2.8,8.27,2.58,10.43-.63,2.33-3.47,2.52-7.84,4-11.64a32.84,32.84,0,0,1,62.19,3.41c2.32,8.46.73,16.63-3.11,23.8,0,0,.15-.2.18-.18C274.86,74.14,277,63.44,273.93,52.28Z"/></g></g></g></svg>