<?xml version="1.0" standalone="no"?>
<!DOCTYPE svg PUBLIC "-//W3C//DTD SVG 20010904//EN"
 "http://www.w3.org/TR/2001/REC-SVG-20010904/DTD/svg10.dtd">
<svg version="1.0" xmlns="http://www.w3.org/2000/svg"
 width="260.000000pt" height="260.000000pt" viewBox="0 0 260.000000 260.000000"
 preserveAspectRatio="xMidYMid meet">
<metadata>
Created by potrace 1.11, written by Peter Selinger 2001-2013
</metadata>
<g transform="translate(0.000000,260.000000) scale(0.100000,-0.100000)"
fill="#000000" stroke="none">
<path d="M1035 2588 c-246 -31 -532 -152 -677 -287 -84 -77 -157 -191 -174
-271 -27 -128 -18 -214 32 -317 l35 -72 -47 -63 c-79 -107 -133 -226 -175
-388 -19 -70 -23 -111 -23 -235 0 -167 19 -267 73 -396 96 -228 295 -429 506
-509 87 -34 234 -37 313 -8 60 22 143 77 166 109 12 17 20 19 67 11 126 -20
317 7 429 60 108 51 219 148 258 225 64 125 12 269 -115 324 -30 13 -41 23
-39 36 6 28 -22 122 -46 157 -33 48 -57 68 -97 82 -54 18 -87 -7 -114 -86 -38
-111 -95 -178 -192 -224 -75 -35 -202 -44 -275 -19 -125 43 -253 211 -267 350
l-6 58 54 -54 c64 -63 124 -100 191 -117 97 -25 128 10 132 148 5 141 23 197
92 288 51 67 69 82 148 125 161 89 348 83 492 -15 183 -126 304 -318 349 -555
6 -35 6 -183 0 -235 -30 -230 -204 -461 -483 -639 -56 -36 -66 -57 -29 -66 60
-15 239 58 397 163 101 67 277 239 345 337 113 163 198 376 229 568 27 175 9
405 -46 577 -132 414 -461 741 -886 879 -97 32 -104 34 -212 52 -85 15 -316
19 -405 7z m650 -109 c89 -30 230 -102 320 -164 95 -66 259 -233 325 -329 94
-141 163 -307 200 -481 26 -126 22 -393 -8 -515 -52 -212 -139 -389 -271 -552
-60 -73 -79 -81 -37 -15 115 180 176 398 171 616 -4 190 -35 315 -120 486 -60
122 -114 199 -208 294 -124 128 -254 209 -484 305 -158 67 -208 118 -212 221
-3 63 35 127 89 149 49 20 149 13 235 -15z m-345 -504 c41 -10 77 -18 80 -18
3 0 33 -10 68 -23 407 -154 678 -517 694 -931 3 -87 -7 -105 -16 -29 -22 191
-186 441 -366 561 -217 144 -439 188 -710 139 -150 -26 -341 -133 -458 -256
-110 -116 -160 -205 -216 -386 -56 -182 -84 -220 -170 -229 -91 -11 -165 41
-187 129 -27 114 23 340 111 502 100 185 250 336 430 433 110 59 256 108 359
120 25 3 47 7 49 8 11 10 269 -6 332 -20z m-695 -652 c-19 -54 -26 -108 -26
-183 1 -82 6 -111 33 -180 81 -206 262 -335 488 -347 118 -7 184 9 311 73 51
25 114 49 140 53 27 5 49 7 49 6 0 -1 -9 -29 -20 -63 -62 -189 -227 -299 -460
-307 -321 -12 -605 200 -655 490 -18 103 9 254 66 367 28 56 75 128 83 128 2
0 -2 -17 -9 -37z m1122 -660 c24 -31 28 -45 27 -99 -1 -85 -39 -148 -135 -226
-110 -90 -265 -136 -439 -132 -140 3 -241 30 -356 95 -84 47 -215 169 -248
229 l-19 35 35 -36 c91 -94 237 -165 398 -194 39 -7 184 -8 215 -1 141 31 233
76 308 151 52 53 108 150 122 212 6 32 7 33 35 18 16 -8 42 -32 57 -52z"/>
</g>
</svg>
